# xmcd
#
# Track frame offsets: 
#        150
#        79671
#        123563
#        159446
#        170307
#        250004
#
# Disc length: 3475 seconds
#
# Revision: 2
# Processed by: cddbd v1.5.2PL0 Copyright (c) Steve Scherf et al.
# Submitted via: ExactAudioCopy v0.99pb3
#
DISCID=3e0d9106
DTITLE=Tangerine Dream - In Search Of Hades 01_18
DYEAR=1974
DGENRE=Electronic
TTITLE0=Phaedra
TTITLE1=Mysterious Semblance At The Strand Of Nightmares
TTITLE2=Movements Of A Visionary
TTITLE3=Sequent C'
TTITLE4=Phaedra [Steven Wilson 2018 Stereo Remix]
TTITLE5=Sequent C' [Steven Wilson 2018 Stereo Remix]
EXTD=
EXTT0=
EXTT1=
EXTT2=
EXTT3=
EXTT4=
EXTT5=
PLAYORDER=
